<svg width="24" height="24" viewBox="0 0 24 24" fill="none" xmlns="http://www.w3.org/2000/svg">
<path fill-rule="evenodd" clip-rule="evenodd" d="M3 3.79606C6.6385 3.21391 8.60535 2.56452 12.0216 1C15.1831 2.52061 17.106 3.18609 21 3.79606C20.5546 14.6235 18.5805 18.8168 12.0216 23C6.17172 19.6209 4.02812 15.7143 3 3.79606Z" fill="currentColor"/>
<path d="M11.1356 9.09615L9.79396 12.228L8.47997 9.09615H7L9.06781 13.9038H10.4164L12.4911 9.09615H11.1356Z" fill="white"/>
<path d="M14.8561 14C16.2946 14 17 13.2857 17 12.4478C17 10.6758 14.2545 11.2253 14.2545 10.4904C14.2545 10.25 14.4619 10.0577 15.0359 10.0577C15.4578 10.0577 15.9142 10.1813 16.3776 10.4286L16.7994 9.41896C16.3223 9.14423 15.6722 9 15.0428 9C13.6044 9 12.899 9.70055 12.899 10.5591C12.899 12.3448 15.6514 11.7885 15.6514 12.5508C15.6514 12.7843 15.4301 12.9423 14.863 12.9423C14.3029 12.9423 13.6943 12.75 13.2655 12.4684L12.816 13.4712C13.2724 13.7871 14.0608 14 14.8561 14Z" fill="white"/>
</svg>
