<svg width="24" height="24" viewBox="0 0 24 24" fill="none" xmlns="http://www.w3.org/2000/svg">
<path fill-rule="evenodd" clip-rule="evenodd" d="M3 3.79606C6.6385 3.21391 8.60535 2.56452 12.0216 1C15.1831 2.52061 17.106 3.18609 21 3.79606C20.5546 14.6235 18.5805 18.8168 12.0216 23C6.17172 19.6209 4.02812 15.7143 3 3.79606Z" fill="currentColor"/>
<g clip-path="url(#clip0)">
<path d="M11.5017 6.31299L10.3681 8.64033L7.8316 9.01475C7.37674 9.08155 7.19445 9.64932 7.52431 9.97451L9.35938 11.7851L8.92535 14.3427C8.84722 14.805 9.32813 15.1513 9.7309 14.9351L12 13.7274L14.2691 14.9351C14.6719 15.1495 15.1528 14.805 15.0747 14.3427L14.6406 11.7851L16.4757 9.97451C16.8056 9.64932 16.6233 9.08155 16.1684 9.01475L13.6319 8.64033L12.4983 6.31299C12.2951 5.89815 11.7066 5.89287 11.5017 6.31299Z" fill="white"/>
</g>
<defs>
<clipPath id="clip0">
<rect width="10" height="9" fill="white" transform="translate(7 6)"/>
</clipPath>
</defs>
</svg>
