<svg width="24" height="24" viewBox="0 0 24 24" fill="none" xmlns="http://www.w3.org/2000/svg">
<path fill-rule="evenodd" clip-rule="evenodd" d="M3 3.79606C6.6385 3.21391 8.60535 2.56452 12.0216 1C15.1831 2.52061 17.106 3.18609 21 3.79606C20.5546 14.6235 18.5805 18.8168 12.0216 23C6.17172 19.6209 4.02812 15.7143 3 3.79606Z" fill="currentColor"/>
<path d="M15.0011 8H9.00021C8.50561 7.99993 8.01866 8.12217 7.58272 8.35583C7.14678 8.58949 6.77538 8.92733 6.50157 9.33926C6.22777 9.7512 6.06007 10.2244 6.01339 10.7169C5.96671 11.2093 6.04251 11.7056 6.23404 12.1617C6.42556 12.6177 6.72688 13.0194 7.11115 13.3308C7.49542 13.6422 7.95073 13.8538 8.43654 13.9466C8.92234 14.0395 9.42358 14.0108 9.89561 13.8631C10.3676 13.7154 10.7958 13.4532 11.1421 13.1H12.8579C13.2041 13.4532 13.6323 13.7153 14.1042 13.8631C14.5762 14.0108 15.0774 14.0395 15.5631 13.9467C16.0489 13.8539 16.5042 13.6424 16.8885 13.3311C17.2727 13.0198 17.5741 12.6183 17.7657 12.1623C17.9573 11.7063 18.0332 11.2101 17.9867 10.7177C17.9402 10.2253 17.7726 9.75206 17.499 9.34008C17.2253 8.9281 16.8541 8.59017 16.4183 8.35637C15.9825 8.12257 15.4956 8.00015 15.0011 8V8ZM10.6501 11.225C10.6501 11.2847 10.6264 11.3419 10.5842 11.3841C10.542 11.4263 10.4848 11.45 10.4251 11.45H9.45018V12.425C9.45018 12.4847 9.42648 12.5419 9.38429 12.5841C9.34209 12.6263 9.28487 12.65 9.2252 12.65H8.77523C8.71556 12.65 8.65834 12.6263 8.61614 12.5841C8.57395 12.5419 8.55025 12.4847 8.55025 12.425V11.45H7.57532C7.51565 11.45 7.45842 11.4263 7.41623 11.3841C7.37404 11.3419 7.35033 11.2847 7.35033 11.225V10.775C7.35033 10.7153 7.37404 10.6581 7.41623 10.6159C7.45842 10.5737 7.51565 10.55 7.57532 10.55H8.55025V9.575C8.55025 9.51533 8.57395 9.4581 8.61614 9.4159C8.65834 9.37371 8.71556 9.35 8.77523 9.35H9.2252C9.28487 9.35 9.34209 9.37371 9.38429 9.4159C9.42648 9.4581 9.45018 9.51533 9.45018 9.575V10.55H10.4251C10.4848 10.55 10.542 10.5737 10.5842 10.6159C10.6264 10.6581 10.6501 10.7153 10.6501 10.775V11.225ZM14.6998 12.65C14.5515 12.65 14.4065 12.606 14.2832 12.5236C14.1598 12.4412 14.0637 12.3241 14.0069 12.187C13.9502 12.05 13.9353 11.8992 13.9643 11.7537C13.9932 11.6082 14.0646 11.4746 14.1695 11.3697C14.2744 11.2648 14.408 11.1934 14.5535 11.1644C14.699 11.1355 14.8498 11.1503 14.9868 11.2071C15.1238 11.2639 15.241 11.36 15.3234 11.4833C15.4058 11.6067 15.4498 11.7517 15.4498 11.9C15.4498 12.0989 15.3707 12.2897 15.2301 12.4303C15.0895 12.571 14.8987 12.65 14.6998 12.65V12.65ZM15.8997 10.85C15.7514 10.85 15.6064 10.806 15.4831 10.7236C15.3597 10.6412 15.2636 10.5241 15.2069 10.387C15.1501 10.25 15.1352 10.0992 15.1642 9.95368C15.1931 9.8082 15.2645 9.67456 15.3694 9.56967C15.4743 9.46478 15.6079 9.39335 15.7534 9.36441C15.8989 9.33547 16.0497 9.35032 16.1867 9.40709C16.3237 9.46386 16.4409 9.55999 16.5233 9.68332C16.6057 9.80666 16.6497 9.95166 16.6497 10.1C16.6497 10.2989 16.5707 10.4897 16.43 10.6303C16.2894 10.771 16.0986 10.85 15.8997 10.85Z" fill="white"/>
</svg>
