<svg width="24" height="24" viewBox="0 0 24 24" fill="none" xmlns="http://www.w3.org/2000/svg">
<path fill-rule="evenodd" clip-rule="evenodd" d="M3 3.79606C6.6385 3.21391 8.60535 2.56452 12.0216 1C15.1831 2.52061 17.106 3.18609 21 3.79606C20.5546 14.6235 18.5805 18.8168 12.0216 23C6.17172 19.6209 4.02812 15.7143 3 3.79606Z" fill="currentColor"/>
<path d="M12 10.5C13.2625 10.5 14.2857 9.49277 14.2857 8.25C14.2857 7.00723 13.2625 6 12 6C10.7375 6 9.71429 7.00723 9.71429 8.25C9.71429 9.49277 10.7375 10.5 12 10.5ZM13.6 11.0625H13.3018C12.9054 11.2418 12.4643 11.3438 12 11.3438C11.5357 11.3438 11.0964 11.2418 10.6982 11.0625H10.4C9.075 11.0625 8 12.1207 8 13.425V14.1562C8 14.6221 8.38393 15 8.85714 15H15.1429C15.6161 15 16 14.6221 16 14.1562V13.425C16 12.1207 14.925 11.0625 13.6 11.0625Z" fill="white"/>
</svg>
