<svg width="24" height="24" viewBox="0 0 24 24" fill="none" xmlns="http://www.w3.org/2000/svg">
<path fill-rule="evenodd" clip-rule="evenodd" d="M3 3.79606C6.6385 3.21391 8.60535 2.56452 12.0216 1C15.1831 2.52061 17.106 3.18609 21 3.79606C20.5546 14.6235 18.5805 18.8168 12.0216 23C6.17172 19.6209 4.02812 15.7143 3 3.79606Z" fill="currentColor"/>
<path d="M7.45 9.85714C8.16703 9.85714 8.75 9.28058 8.75 8.57143C8.75 7.86228 8.16703 7.28571 7.45 7.28571C6.73297 7.28571 6.15 7.86228 6.15 8.57143C6.15 9.28058 6.73297 9.85714 7.45 9.85714ZM16.55 9.85714C17.267 9.85714 17.85 9.28058 17.85 8.57143C17.85 7.86228 17.267 7.28571 16.55 7.28571C15.833 7.28571 15.25 7.86228 15.25 8.57143C15.25 9.28058 15.833 9.85714 16.55 9.85714ZM17.2 10.5H15.9C15.5425 10.5 15.2195 10.6426 14.9839 10.8737C15.8025 11.3176 16.3834 12.1192 16.5094 13.0714H17.85C18.2095 13.0714 18.5 12.7842 18.5 12.4286V11.7857C18.5 11.0766 17.917 10.5 17.2 10.5ZM12 10.5C13.2573 10.5 14.275 9.49353 14.275 8.25C14.275 7.00647 13.2573 6 12 6C10.7427 6 9.725 7.00647 9.725 8.25C9.725 9.49353 10.7427 10.5 12 10.5ZM13.56 11.1429H13.3914C12.9689 11.3437 12.4997 11.4643 12 11.4643C11.5003 11.4643 11.0331 11.3437 10.6086 11.1429H10.44C9.14812 11.1429 8.1 12.1795 8.1 13.4571V14.0357C8.1 14.5681 8.53672 15 9.075 15H14.925C15.4633 15 15.9 14.5681 15.9 14.0357V13.4571C15.9 12.1795 14.8519 11.1429 13.56 11.1429ZM9.01609 10.8737C8.78047 10.6426 8.4575 10.5 8.1 10.5H6.8C6.08297 10.5 5.5 11.0766 5.5 11.7857V12.4286C5.5 12.7842 5.79047 13.0714 6.15 13.0714H7.48859C7.61656 12.1192 8.1975 11.3176 9.01609 10.8737Z" fill="white"/>
</svg>
